<svg width="15" height="15" viewBox="0 0 15 15" fill="none" xmlns="http://www.w3.org/2000/svg">
<path d="M14.1509 6.52117C14.1509 10.8154 7.57546 14.4962 7.57546 14.4962C7.57546 14.4962 1 10.8154 1 6.52117C1 5.05687 1.69277 3.65253 2.92591 2.61711C4.15905 1.58169 5.83154 1 7.57546 1C9.31939 1 10.9919 1.58169 12.225 2.61711C13.4582 3.65253 14.1509 5.05687 14.1509 6.52117Z" stroke="#0080FF" stroke-linecap="round" stroke-linejoin="round"/>
<path d="M7.57546 8.36156C8.78597 8.36156 9.76729 7.53759 9.76729 6.52117C9.76729 5.50475 8.78597 4.68078 7.57546 4.68078C6.36495 4.68078 5.38364 5.50475 5.38364 6.52117C5.38364 7.53759 6.36495 8.36156 7.57546 8.36156Z" stroke="#0080FF" stroke-linecap="round" stroke-linejoin="round"/>
</svg>
