<svg width="99" height="18" viewBox="0 0 99 18" fill="none" xmlns="http://www.w3.org/2000/svg">
<path d="M2.6475 4.68C2.0475 4.68 1.55417 4.50667 1.1675 4.16C0.794167 3.8 0.6075 3.36 0.6075 2.84C0.6075 2.30667 0.794167 1.86667 1.1675 1.52C1.55417 1.16 2.0475 0.979999 2.6475 0.979999C3.23417 0.979999 3.71417 1.16 4.0875 1.52C4.47417 1.86667 4.6675 2.30667 4.6675 2.84C4.6675 3.36 4.47417 3.8 4.0875 4.16C3.71417 4.50667 3.23417 4.68 2.6475 4.68ZM4.3475 5.84V17H0.9275V5.84H4.3475ZM13.6259 5.72C14.9326 5.72 15.9726 6.14667 16.7459 7C17.5326 7.84 17.9259 9 17.9259 10.48V17H14.5259V10.94C14.5259 10.1933 14.3326 9.61333 13.9459 9.2C13.5593 8.78667 13.0393 8.58 12.3859 8.58C11.7326 8.58 11.2126 8.78667 10.8259 9.2C10.4393 9.61333 10.2459 10.1933 10.2459 10.94V17H6.82594V5.84H10.2459V7.32C10.5926 6.82667 11.0593 6.44 11.6459 6.16C12.2326 5.86667 12.8926 5.72 13.6259 5.72ZM25.9025 8.68H24.0625V17H20.6425V8.68H19.4025V5.84H20.6425V5.52C20.6425 4.14667 21.0358 3.10667 21.8225 2.4C22.6092 1.68 23.7625 1.32 25.2825 1.32C25.5358 1.32 25.7225 1.32667 25.8425 1.34V4.24C25.1892 4.2 24.7292 4.29333 24.4625 4.52C24.1958 4.74667 24.0625 5.15333 24.0625 5.74V5.84H25.9025V8.68ZM32.5895 17.16C31.4962 17.16 30.5095 16.9267 29.6295 16.46C28.7629 15.9933 28.0762 15.3267 27.5695 14.46C27.0762 13.5933 26.8295 12.58 26.8295 11.42C26.8295 10.2733 27.0829 9.26667 27.5895 8.4C28.0962 7.52 28.7895 6.84667 29.6695 6.38C30.5495 5.91333 31.5362 5.68 32.6295 5.68C33.7229 5.68 34.7095 5.91333 35.5895 6.38C36.4695 6.84667 37.1629 7.52 37.6695 8.4C38.1762 9.26667 38.4295 10.2733 38.4295 11.42C38.4295 12.5667 38.1695 13.58 37.6495 14.46C37.1429 15.3267 36.4429 15.9933 35.5495 16.46C34.6695 16.9267 33.6829 17.16 32.5895 17.16ZM32.5895 14.2C33.2429 14.2 33.7962 13.96 34.2495 13.48C34.7162 13 34.9495 12.3133 34.9495 11.42C34.9495 10.5267 34.7229 9.84 34.2695 9.36C33.8295 8.88 33.2829 8.64 32.6295 8.64C31.9629 8.64 31.4095 8.88 30.9695 9.36C30.5295 9.82667 30.3095 10.5133 30.3095 11.42C30.3095 12.3133 30.5229 13 30.9495 13.48C31.3895 13.96 31.9362 14.2 32.5895 14.2ZM46.4639 14.1V17H44.7239C43.4839 17 42.5172 16.7 41.8239 16.1C41.1306 15.4867 40.7839 14.4933 40.7839 13.12V8.68H39.4239V5.84H40.7839V3.12H44.2039V5.84H46.4439V8.68H44.2039V13.16C44.2039 13.4933 44.2839 13.7333 44.4439 13.88C44.6039 14.0267 44.8706 14.1 45.2439 14.1H46.4639ZM51.7889 7.7C52.1889 7.08667 52.6889 6.60667 53.2889 6.26C53.8889 5.9 54.5556 5.72 55.2889 5.72V9.34H54.3489C53.4956 9.34 52.8556 9.52667 52.4289 9.9C52.0022 10.26 51.7889 10.9 51.7889 11.82V17H48.3689V5.84H51.7889V7.7ZM56.2436 11.4C56.2436 10.2533 56.4569 9.24667 56.8836 8.38C57.3236 7.51333 57.9169 6.84667 58.6636 6.38C59.4103 5.91333 60.2436 5.68 61.1636 5.68C61.9503 5.68 62.6369 5.84 63.2236 6.16C63.8236 6.48 64.2836 6.9 64.6036 7.42V5.84H68.0236V17H64.6036V15.42C64.2703 15.94 63.8036 16.36 63.2036 16.68C62.6169 17 61.9303 17.16 61.1436 17.16C60.2369 17.16 59.4103 16.9267 58.6636 16.46C57.9169 15.98 57.3236 15.3067 56.8836 14.44C56.4569 13.56 56.2436 12.5467 56.2436 11.4ZM64.6036 11.42C64.6036 10.5667 64.3636 9.89333 63.8836 9.4C63.4169 8.90667 62.8436 8.66 62.1636 8.66C61.4836 8.66 60.9036 8.90667 60.4236 9.4C59.9569 9.88 59.7236 10.5467 59.7236 11.4C59.7236 12.2533 59.9569 12.9333 60.4236 13.44C60.9036 13.9333 61.4836 14.18 62.1636 14.18C62.8436 14.18 63.4169 13.9333 63.8836 13.44C64.3636 12.9467 64.6036 12.2733 64.6036 11.42ZM75.5178 13.8L77.9378 5.84H81.5778L77.6178 17H73.3978L69.4378 5.84H73.0978L75.5178 13.8ZM93.5373 11.24C93.5373 11.56 93.5173 11.8933 93.4773 12.24H85.7373C85.7907 12.9333 86.0107 13.4667 86.3973 13.84C86.7973 14.2 87.284 14.38 87.8573 14.38C88.7107 14.38 89.304 14.02 89.6373 13.3H93.2773C93.0907 14.0333 92.7507 14.6933 92.2573 15.28C91.7773 15.8667 91.1707 16.3267 90.4373 16.66C89.704 16.9933 88.884 17.16 87.9773 17.16C86.884 17.16 85.9107 16.9267 85.0573 16.46C84.204 15.9933 83.5373 15.3267 83.0573 14.46C82.5773 13.5933 82.3373 12.58 82.3373 11.42C82.3373 10.26 82.5707 9.24667 83.0373 8.38C83.5173 7.51333 84.184 6.84667 85.0373 6.38C85.8907 5.91333 86.8707 5.68 87.9773 5.68C89.0573 5.68 90.0173 5.90667 90.8573 6.36C91.6973 6.81333 92.3507 7.46 92.8173 8.3C93.2973 9.14 93.5373 10.12 93.5373 11.24ZM90.0373 10.34C90.0373 9.75333 89.8373 9.28667 89.4373 8.94C89.0373 8.59333 88.5373 8.42 87.9373 8.42C87.364 8.42 86.8773 8.58667 86.4773 8.92C86.0907 9.25333 85.8507 9.72667 85.7573 10.34H90.0373ZM98.7616 2.2V17H95.3416V2.2H98.7616Z" fill="#00264D"/>
</svg>
