<svg width="96" height="17" viewBox="0 0 96 17" fill="none" xmlns="http://www.w3.org/2000/svg">
<path d="M2.08516 3.6C1.59182 3.6 1.17849 3.44667 0.845156 3.14C0.525156 2.82 0.365156 2.42667 0.365156 1.96C0.365156 1.49333 0.525156 1.10667 0.845156 0.799999C1.17849 0.479999 1.59182 0.319999 2.08516 0.319999C2.57849 0.319999 2.98516 0.479999 3.30516 0.799999C3.63849 1.10667 3.80516 1.49333 3.80516 1.96C3.80516 2.42667 3.63849 2.82 3.30516 3.14C2.98516 3.44667 2.57849 3.6 2.08516 3.6ZM3.46516 4.92V16H0.665156V4.92H3.46516ZM12.3716 4.76C13.6916 4.76 14.7582 5.18 15.5716 6.02C16.3849 6.84667 16.7916 8.00667 16.7916 9.5V16H13.9916V9.88C13.9916 9 13.7716 8.32667 13.3316 7.86C12.8916 7.38 12.2916 7.14 11.5316 7.14C10.7582 7.14 10.1449 7.38 9.69156 7.86C9.25156 8.32667 9.03156 9 9.03156 9.88V16H6.23156V4.92H9.03156V6.3C9.4049 5.82 9.87823 5.44667 10.4516 5.18C11.0382 4.9 11.6782 4.76 12.3716 4.76ZM24.5342 7.22H22.5942V16H19.7542V7.22H18.4942V4.92H19.7542V4.36C19.7542 3 20.1409 2 20.9142 1.36C21.6876 0.719999 22.8542 0.42 24.4142 0.46V2.82C23.7342 2.80667 23.2609 2.92 22.9942 3.16C22.7276 3.4 22.5942 3.83333 22.5942 4.46V4.92H24.5342V7.22ZM31.2688 16.18C30.2021 16.18 29.2421 15.9467 28.3888 15.48C27.5354 15 26.8621 14.3267 26.3688 13.46C25.8888 12.5933 25.6488 11.5933 25.6488 10.46C25.6488 9.32667 25.8954 8.32667 26.3888 7.46C26.8954 6.59333 27.5821 5.92667 28.4488 5.46C29.3154 4.98 30.2821 4.74 31.3488 4.74C32.4154 4.74 33.3821 4.98 34.2488 5.46C35.1154 5.92667 35.7954 6.59333 36.2888 7.46C36.7954 8.32667 37.0488 9.32667 37.0488 10.46C37.0488 11.5933 36.7888 12.5933 36.2687 13.46C35.7621 14.3267 35.0688 15 34.1888 15.48C33.3221 15.9467 32.3488 16.18 31.2688 16.18ZM31.2688 13.74C31.7754 13.74 32.2488 13.62 32.6888 13.38C33.1421 13.1267 33.5021 12.7533 33.7688 12.26C34.0354 11.7667 34.1688 11.1667 34.1688 10.46C34.1688 9.40667 33.8888 8.6 33.3288 8.04C32.7821 7.46667 32.1088 7.18 31.3088 7.18C30.5088 7.18 29.8354 7.46667 29.2888 8.04C28.7554 8.6 28.4888 9.40667 28.4888 10.46C28.4888 11.5133 28.7488 12.3267 29.2688 12.9C29.8021 13.46 30.4688 13.74 31.2688 13.74ZM42.3627 7.22V12.58C42.3627 12.9533 42.4493 13.2267 42.6227 13.4C42.8093 13.56 43.116 13.64 43.5427 13.64H44.8427V16H43.0827C40.7227 16 39.5427 14.8533 39.5427 12.56V7.22H38.2227V4.92H39.5427V2.18H42.3627V4.92H44.8427V7.22H42.3627ZM49.6566 6.64C50.0166 6.05333 50.4832 5.59333 51.0566 5.26C51.6432 4.92667 52.3099 4.76 53.0566 4.76V7.7H52.3166C51.4366 7.7 50.7699 7.90667 50.3166 8.32C49.8766 8.73333 49.6566 9.45333 49.6566 10.48V16H46.8566V4.92H49.6566V6.64ZM54.2225 10.42C54.2225 9.3 54.4425 8.30667 54.8825 7.44C55.3358 6.57333 55.9425 5.90667 56.7025 5.44C57.4758 4.97333 58.3358 4.74 59.2825 4.74C60.1092 4.74 60.8292 4.90667 61.4425 5.24C62.0692 5.57333 62.5692 5.99333 62.9425 6.5V4.92H65.7625V16H62.9425V14.38C62.5825 14.9 62.0825 15.3333 61.4425 15.68C60.8158 16.0133 60.0892 16.18 59.2625 16.18C58.3292 16.18 57.4758 15.94 56.7025 15.46C55.9425 14.98 55.3358 14.3067 54.8825 13.44C54.4425 12.56 54.2225 11.5533 54.2225 10.42ZM62.9425 10.46C62.9425 9.78 62.8092 9.2 62.5425 8.72C62.2758 8.22667 61.9158 7.85333 61.4625 7.6C61.0092 7.33333 60.5225 7.2 60.0025 7.2C59.4825 7.2 59.0025 7.32667 58.5625 7.58C58.1225 7.83333 57.7625 8.20667 57.4825 8.7C57.2158 9.18 57.0825 9.75333 57.0825 10.42C57.0825 11.0867 57.2158 11.6733 57.4825 12.18C57.7625 12.6733 58.1225 13.0533 58.5625 13.32C59.0158 13.5867 59.4958 13.72 60.0025 13.72C60.5225 13.72 61.0092 13.5933 61.4625 13.34C61.9158 13.0733 62.2758 12.7 62.5425 12.22C62.8092 11.7267 62.9425 11.14 62.9425 10.46ZM73.1172 13.42L75.9172 4.92H78.8972L74.7972 16H71.3972L67.3172 4.92H70.3172L73.1172 13.42ZM90.7698 10.22C90.7698 10.62 90.7432 10.98 90.6898 11.3H82.5898C82.6565 12.1 82.9365 12.7267 83.4298 13.18C83.9232 13.6333 84.5298 13.86 85.2498 13.86C86.2898 13.86 87.0298 13.4133 87.4698 12.52H90.4898C90.1698 13.5867 89.5565 14.4667 88.6498 15.16C87.7432 15.84 86.6298 16.18 85.3098 16.18C84.2432 16.18 83.2832 15.9467 82.4298 15.48C81.5898 15 80.9298 14.3267 80.4498 13.46C79.9832 12.5933 79.7498 11.5933 79.7498 10.46C79.7498 9.31333 79.9832 8.30667 80.4498 7.44C80.9165 6.57333 81.5698 5.90667 82.4098 5.44C83.2498 4.97333 84.2165 4.74 85.3098 4.74C86.3632 4.74 87.3032 4.96667 88.1298 5.42C88.9698 5.87333 89.6165 6.52 90.0698 7.36C90.5365 8.18667 90.7698 9.14 90.7698 10.22ZM87.8698 9.42C87.8565 8.7 87.5965 8.12667 87.0898 7.7C86.5832 7.26 85.9632 7.04 85.2298 7.04C84.5365 7.04 83.9498 7.25333 83.4698 7.68C83.0032 8.09333 82.7165 8.67333 82.6098 9.42H87.8698ZM95.6136 1.2V16H92.8136V1.2H95.6136Z" fill="#00264D"/>
</svg>
